<?xml version="1.0" encoding="utf-8"?>
<!-- Generator: Adobe Illustrator 24.2.0, SVG Export Plug-In . SVG Version: 6.00 Build 0)  -->
<svg version="1.1" id="Layer_1" xmlns="http://www.w3.org/2000/svg" xmlns:xlink="http://www.w3.org/1999/xlink" x="0px" y="0px"
	 viewBox="0 0 714 380.2" style="enable-background:new 0 0 714 380.2;" xml:space="preserve">
<style type="text/css">
	.st0{fill:#413179;}
	.st1{fill:#9653A1;}
	.st2{fill:#7695CD;}
	.st3{fill:#622A84;}
	.st4{fill:#FFFFFF;}
</style>
<g>
	<g>
		<g>
			<g>
				<g>
					<path class="st4" d="M318.2,155.8c-23.3,0-39.2,17.5-39.2,40.5v127.4c0,1.3,1,2.1,2.4,2.1h7.1c1.3,0,2.4-0.8,2.4-2.1v-63.2
						c6.3,9.4,15.9,15.4,29,15.4c21.4,0,37.4-17.5,37.4-40.5v-39C357.1,173.3,341.2,155.8,318.2,155.8z M345.6,235.3
						c0,17-11,29.3-27.4,29.3c-16.7,0-27.4-12.3-27.4-29.3v-39c0-17,10.7-29.3,27.4-29.3c16.5,0,27.4,12.3,27.4,29.3V235.3z"/>
					<path class="st4" d="M427,156.1c-6.6-0.7-13.3-1.1-24.4,4.3c-12.7,6.2-19.9,20-19.9,35.9v39c0,23,15.4,40.5,39.2,40.5
						c24,0,39.2-17.5,39.2-40.5v-39C461.1,175,448.1,158.4,427,156.1z M449.4,235.3c0,17-10.2,29.5-27.4,29.5
						c-17,0-27.4-12.5-27.4-29.5v-39c0-17,10.5-29.5,27.4-29.5c17.3,0,27.4,12.5,27.4,29.5V235.3z"/>
					<path class="st4" d="M501.4,105.9h-7.3c-1.3,0-2.1,0.8-2.1,2.1v163.4c0,1.3,0.8,2.1,2.1,2.1h7.3c1.3,0,2.1-0.8,2.1-2.1V108
						C503.5,106.7,502.7,105.9,501.4,105.9z"/>
				</g>
				<g>
					<path class="st4" d="M638.2,271.3V197c0-23.8,14.6-41.3,37.9-41.3S714,173.2,714,197v74.3c0,1.3-1,2.1-2.4,2.1h-7.1
						c-1.3,0-2.4-0.8-2.4-2.1V197c0-18-9.1-30.3-26.1-30.3S650,178.9,650,197v74.3c0,1.3-1,2.1-2.4,2.1h-7.1
						C639.3,273.4,638.2,272.6,638.2,271.3z"/>
				</g>
			</g>
			<path class="st4" d="M647.6,159.1h-7.3c-1.3,0-2.1,0.8-2.1,2.1v81.7c0,1.3,0.8,2.1,2.1,2.1h7.3c1.3,0,2.1-0.8,2.1-2.1v-81.7
				C649.7,159.9,648.9,159.1,647.6,159.1z"/>
			<path class="st4" d="M596.3,247.2c-3.7,10.5-12.3,17.4-24.9,17.4c-17.1,0-26.4-12-26.9-28.1h25.3c25.6,0,40.8-10.1,40.8-31.8
				c0-22.2-15.7-39.5-38.9-39.5c-23.8,0-38.9,17-38.9,40.5v29.6c0,23.5,14.6,40.2,38.7,40.2c19.3,0,32.6-11.3,37-28.4H596.3z
				 M544.5,205.8c0-17.5,9.9-29.5,27.2-29.5c16.7,0,27.2,12.3,27.2,28.5c0,15.4-9.9,20.5-29,20.5h-25.4V205.8z"/>
		</g>
	</g>
	<g>
		<path class="st4" d="M37.8,338.9c8.8,6.3,18,8.4,26.4,6l2.9-1.7c0.4-1.1,0.8-2.2,1.1-3.3c1.4-10.1,0.2-22-1.5-34.3
			c-1.2-8.8-2.7-17.9-4.4-27.5c-4.2-25.1-8.6-51.1-6.8-72.6l0-0.1c0.7-4.9,2.5-13.9,7.1-21.5c7-14.3,21.6-24.3,38.5-24.6
			c0.3,0,0.6,0,0.9,0c0.1,0,0.3,0,0.4,0c0.2,0,0.4,0,0.7,0c0.3,0,0.6,0,0.9,0c1.9,0.1,3.9,0.3,5.7,0.6c0,0,0,0,0,0
			c0.6,0.1,1.2,0.2,1.8,0.4c0.4,0.1,0.9,0.2,1.3,0.3c0.2,0,0.4,0.1,0.5,0.1c0.3,0.1,0.5,0.1,0.8,0.2c15,4.4,26.7,16.6,30.4,31.9
			c0,0.2,0.1,0.3,0.1,0.5c0.1,0.2,0.1,0.5,0.2,0.7c0.1,0.4,0.2,0.8,0.2,1.2c0,0,0,0.1,0,0.1c0.1,0.4,0.1,0.8,0.2,1.2
			c0,0.2,0,0.3,0.1,0.5c0,0.3,0.1,0.6,0.1,0.9c0,0.1,0,0.3,0,0.4c0,0.4,0.1,0.9,0.1,1.3c0,0.1,0,0.2,0,0.4c0,0.4,0,0.7,0.1,1.1
			c0,0.1,0,0.3,0,0.4c0,0.3,0,0.7,0,1c1.1-2.7,2.1-5.5,2.9-8.3c2.9-10.4,1.4-21.8-2.3-31.8c-6.3-17.1-20.7-30-37.5-36.5
			c-17.9-6.9-38.3-6.3-56.5-0.5c-16.8,5.4-31.3,16.4-40.6,31.5c-3.3,5.4-6,11.2-8,17.2c-1,3.4-1.8,6.9-2.4,10.5
			c-0.7,3.6-1.1,7.3-1.4,11c-0.1,1.1-0.2,2.2-0.2,3.3c-0.1,1.3-0.1,2.7-0.1,4c0,1.3,0,2.6,0.1,4c0,13,0,32.5,0,53.8
			C3,292.9,18.3,324.9,37.8,338.9z"/>
		<path class="st4" d="M34.5,343.4c-10.7-7.7-20.7-20.8-28-36.8c-2.5-5.4-4.6-11.1-6.4-17c0,27.1,0,53.6,0,70.6c0,0,0,0,0,0
			c0,1.5,0,2.8,0,4.1c0,0,0,0,0,0c0,1.3,0,2.5,0,3.6c0,0.1,0,0.1,0,0.2c0,0.2,0,0.5,0,0.7c0,0.1,0,0.1,0,0.2c0,0.8,0,1.5,0,2.2v0
			c0,0.2,0,0.5,0,0.7c0,0,0,0.1,0,0.1c0,0.2,0,0.4,0,0.6c0,0.1,0,0.2,0,0.3c0,0.2,0,0.5,0,0.7c0,0.1,0,0.3,0,0.4c0,0.1,0,0.2,0,0.3
			c0,0.1,0,0.2,0,0.3c0,0.1,0,0.2,0,0.3c0,0.1,0,0.3,0,0.4c0,0.1,0,0.1,0,0.2c0,0.5,0,1,0.1,1.4c0,0.2,0,0.4,0.1,0.5
			c0,0.2,0.1,0.4,0.2,0.6c0,0,0,0,0,0c0.5,1.4,1.7,1.9,4.1,1.9h0c2.5,0,5-0.2,7.4-0.3c1.4-0.1,2.8-0.2,4.1-0.4
			c1.7-0.2,3.4-0.4,5-0.7c1.2-0.2,2.3-0.4,3.4-0.7c0.8-0.2,1.7-0.4,2.5-0.6c1.4-0.3,2.7-0.7,4-1.1c1.3-0.4,2.6-0.8,3.8-1.3
			c11.2-4.3,20.3-11.4,27.3-21.9c0.5-0.8,1-1.5,1.5-2.3c-2.1,0.4-4.2,0.7-6.4,0.7C49.7,351.5,42,348.8,34.5,343.4z"/>
		<g>
			<path class="st4" d="M203.9,195.9c-0.1-1.7-0.3-3.4-0.5-5.1c0-0.4-0.1-0.7-0.1-1.1c-0.2-1.8-0.5-3.5-0.8-5.3
				c0-0.2-0.1-0.4-0.1-0.6c-1.2-6.1-2.9-11.9-5-17.6c0-0.1-0.1-0.2-0.1-0.3c-0.7-1.8-1.4-3.5-2.2-5.3c-0.1-0.1-0.1-0.3-0.2-0.4
				c-0.8-1.8-1.7-3.6-2.6-5.3l0,0c-5.5-10.2-12.7-19.4-21.2-27.2c-1.4-1.3-2.8-2.5-4.2-3.7c-0.4-0.3-0.8-0.6-1.1-0.9
				c-1.1-0.9-2.3-1.8-3.4-2.6c-0.6-0.4-1.2-0.9-1.8-1.3c-1-0.7-2-1.4-3.1-2.1c-0.6-0.4-1.2-0.8-1.8-1.2c-1.4-0.9-2.8-1.7-4.2-2.5
				c-0.3-0.1-0.5-0.3-0.8-0.4c-1.7-0.9-3.4-1.8-5.2-2.6c-0.5-0.2-0.9-0.4-1.4-0.6c-1.4-0.6-2.8-1.3-4.3-1.8
				c-0.4-0.2-0.9-0.3-1.3-0.5c-3.9-1.5-7.8-2.7-11.9-3.7c0,0,0,0,0,0c-7.9-2-16.2-3-24.7-3c-28.5,0-54.2,12.1-72.7,31.3
				c9.1-6.4,19.5-11,30.7-13.4c19.8-4.2,40.4-3,58.6,6.4c17.5,9.1,30.9,25.1,35.1,44.6c1.2,5.4,1.8,11.3,1.4,16.8
				c-0.1,1.4-0.3,2.8-0.5,4.2l0,0c-1.6,10.9-7.9,28-18.6,40.2c-3.1,3.7-6.8,6.9-10.9,9.4l0,0v0c-6.6,4.1-14.4,6.4-22.8,6.4
				c-19.1,0-35.3-12.3-41.4-29.3c0.2,18.3,3.7,39.2,7.1,59.5c1.4,8.1,2.7,15.8,3.8,23.4c9.6,3,19.8,4.6,30.4,4.6
				c56.3,0,102.1-45.8,102.1-102.1c0-2.1-0.1-4.1-0.2-6.2C204,196.6,204,196.3,203.9,195.9z"/>
		</g>
		<path class="st4" d="M187.6,86.4c-6.2,2-13-1.4-15-7.6c-2-6.2,1.4-13,7.6-15c6.2-2,13,1.4,15,7.6
			C197.3,77.7,193.8,84.4,187.6,86.4z M163.6,35.7c-3.6,3-4.1,8.5-1.1,12.1c3,3.6,8.5,4.1,12.1,1.1c3.6-3,4.1-8.5,1.1-12.1
			C172.7,33.1,167.3,32.7,163.6,35.7z M183.4,105.2c-10.9,2.3-17.9,13.1-15.5,24s13.1,17.9,24,15.5s17.9-13.1,15.5-24
			S194.4,102.8,183.4,105.2z M219.3,43.6c-1.4,2.2-0.8,5.1,1.4,6.5c2.2,1.4,5.1,0.8,6.5-1.4s0.8-5.1-1.4-6.5
			C223.6,40.8,220.7,41.5,219.3,43.6z M189.1,19.5c3.2,2.1,7.5,1.2,9.6-2.1c2.1-3.2,1.2-7.5-2.1-9.6s-7.5-1.2-9.6,2.1
			C184.9,13.1,185.8,17.5,189.1,19.5z M222.2,75.2c-4.3,0.9-7,5.2-6.1,9.5c0.9,4.3,5.2,7,9.5,6.1c4.3-0.9,7-5.2,6.1-9.5
			C230.7,77,226.5,74.3,222.2,75.2z"/>
		<g>
			<g>
				<path class="st4" d="M145.9,204.9c0,0.4,0,0.9-0.1,1.3c0,0,0,0.1,0,0.1c-0.1,1-0.2,2.1-0.3,3.1l0,0c3.6-7.4,7.2-16.6,7.2-24.8
					c0-43-37.6-65.7-69.5-65.7c-56.2,0-79.5,36.5-82.6,75.2c-0.3,1.8-0.4,3.5-0.4,5.3c0,11.4,0,33.4,0,58.1
					c0,50.2,32.5,99.7,65.2,90c5.8-12.1,6.3-26.5,4.2-42.2c-4.4-32.3-13.6-70.3-11.2-99.4c-0.1-0.9-0.1-1.8-0.1-2.7
					c0-24.2,19.6-43.8,43.8-43.8c0.7,0,1.4,0,2.1,0.1c0.3,0,0.6,0,0.8,0c0.9,0.1,1.7,0.2,2.6,0.3l0,0c0.1,0,0.2,0,0.3,0
					c0.2,0,0.5,0.1,0.7,0.1c0.2,0,0.3,0,0.5,0.1c0.2,0,0.3,0.1,0.5,0.1c0.2,0,0.4,0.1,0.5,0.1c0.1,0,0.3,0.1,0.4,0.1
					c0.2,0,0.4,0.1,0.6,0.1c0.1,0,0.2,0,0.3,0.1c1.1,0.2,2.2,0.5,3.3,0.9c5.3,1.5,9.9,3.8,14.5,7.6c0.3,0.2,0.6,0.5,0.9,0.7
					c0,0,0.1,0.1,0.1,0.1c0.3,0.2,0.5,0.4,0.8,0.7c0,0,0.1,0.1,0.1,0.1c0.3,0.2,0.5,0.5,0.8,0.7c0,0,0.1,0.1,0.1,0.1
					c1.5,1.4,2.8,2.8,4.1,4.4c3.9,4.6,6.5,9.6,8.1,15.5c0.1,0.5,0.3,0.9,0.4,1.4c0,0.1,0,0.1,0,0.2c0.1,0.4,0.2,0.8,0.3,1.2
					c0,0.1,0,0.2,0,0.2c0.2,0.9,0.4,1.8,0.5,2.8c0,0.1,0,0.2,0,0.3c0.1,0.4,0.1,0.8,0.1,1.2c0,0.1,0,0.1,0,0.2
					c0,0.5,0.1,0.9,0.1,1.4c0,0.1,0,0.2,0,0.3c0,0.4,0,0.7,0.1,1.1c0,0.1,0,0.3,0,0.4c0,0.5,0,0.9,0,1.4c0,0.5,0,1,0,1.4
					C145.9,204.7,145.9,204.8,145.9,204.9z"/>
			</g>
		</g>
		<circle class="st4" cx="123.8" cy="75.1" r="16"/>
		<circle class="st4" cx="231.8" cy="4" r="4"/>
	</g>
</g>
</svg>
